<svg width="32" height="20" viewBox="0 0 32 20" fill="none" xmlns="http://www.w3.org/2000/svg">
<path d="M26.5533 11.3703C26.036 10.7169 26.184 10.4263 26.5533 9.84226C26.56 9.8356 30.8307 3.93426 31.2707 1.93293L31.2733 1.93159C31.492 1.20226 31.2733 0.66626 30.216 0.66626H26.7173C25.8267 0.66626 25.416 1.12626 25.196 1.64093C25.196 1.64093 23.4147 5.90493 20.8947 8.66893C20.0813 9.4676 19.7053 9.7236 19.2613 9.7236C19.0427 9.7236 18.7027 9.4676 18.7027 8.73826V1.93159C18.7027 1.05693 18.4533 0.66626 17.716 0.66626H12.2147C11.656 0.66626 11.324 1.07426 11.324 1.45426C11.324 2.28359 12.584 2.47426 12.7147 4.80759V9.87026C12.7147 10.9796 12.5133 11.1836 12.0667 11.1836C10.8773 11.1836 7.99067 6.90226 6.28 2.00226C5.93467 1.05159 5.59733 0.667593 4.7 0.667593H1.2C0.201333 0.667593 0 1.12759 0 1.64226C0 2.55159 1.18933 7.07293 5.53067 13.0463C8.424 17.1236 12.4987 19.3329 16.2053 19.3329C18.4333 19.3329 18.7053 18.8423 18.7053 17.9983C18.7053 14.1023 18.504 13.7343 19.62 13.7343C20.1373 13.7343 21.028 13.9903 23.108 15.9569C25.4853 18.2889 25.876 19.3329 27.2067 19.3329H30.7053C31.7027 19.3329 32.208 18.8423 31.9173 17.8743C31.252 15.8383 26.756 11.6503 26.5533 11.3703Z" fill="#949494"/>
</svg>
