<svg width="15" height="15" viewBox="0 0 15 15" fill="none" xmlns="http://www.w3.org/2000/svg">
<path d="M12.8437 2.55591H2.12943C1.20501 2.55622 0.455741 3.30559 0.455322 4.23002V10.481C0.455741 11.4054 1.20501 12.1549 2.12943 12.1551H12.8437C13.7681 12.1549 14.5174 11.4054 14.5178 10.481V4.23002C14.5174 3.30559 13.7681 2.55622 12.8437 2.55591ZM2.12943 3.22555H12.8437C13.326 3.22681 13.7398 3.56906 13.8314 4.04241L7.48657 7.57823L1.14171 4.04241C1.23336 3.56906 1.64718 3.22681 2.12943 3.22555ZM12.8437 11.4822H2.12943C1.5754 11.4806 1.12653 11.0318 1.12497 10.4778V4.79921L7.32251 8.25446C7.37273 8.28209 7.42913 8.29715 7.48657 8.2981C7.54422 8.29872 7.60083 8.28366 7.65063 8.25446L13.8482 4.79921V10.4778C13.8478 11.0323 13.3983 11.4817 12.8437 11.4822Z" fill="#949494"/>
</svg>
