<svg width="32" height="32" viewBox="0 0 32 32" fill="none" xmlns="http://www.w3.org/2000/svg">
<path d="M25.4375 0H6.5625C2.94394 0 0 2.94394 0 6.5625V25.4375C0 29.0561 2.94394 32 6.5625 32H25.4375C29.0561 32 32 29.0561 32 25.4375V6.5625C32 2.94394 29.0561 0 25.4375 0ZM9.85306 24.6572C9.564 25.1579 9.03769 25.4381 8.49725 25.4381C8.23231 25.4381 7.96406 25.3708 7.71863 25.2291C6.9725 24.7984 6.71594 23.8409 7.14669 23.0947L7.454 22.5625H11.0624L9.85306 24.6572ZM6.90625 21.3125C6.04469 21.3125 5.34375 20.6116 5.34375 19.75C5.34375 18.8884 6.04469 18.1875 6.90625 18.1875H9.97987L14.1958 10.8854L13.0532 8.90637C12.6224 8.16025 12.8789 7.20275 13.6251 6.77194H13.6251C14.3713 6.34119 15.3287 6.59781 15.7595 7.34387L16 7.76044L16.2405 7.34394C16.6714 6.59775 17.6289 6.34125 18.3749 6.772C18.7363 6.98069 18.9949 7.31763 19.1029 7.72075C19.2109 8.12387 19.1554 8.545 18.9468 8.90644L13.5883 18.1875H16.9683L18.7725 21.3125H6.90625ZM25.0938 21.3125H23.8243L24.8533 23.0947C25.2841 23.8408 25.0275 24.7983 24.2814 25.2291C24.0406 25.3681 23.7734 25.4391 23.5026 25.4391C23.3669 25.4391 23.2304 25.4213 23.0957 25.3852C22.6925 25.2771 22.3556 25.0186 22.1469 24.6571L16.7216 15.2603L18.5258 12.1353L22.0201 18.1875H25.0938C25.9553 18.1875 26.6562 18.8884 26.6562 19.75C26.6562 20.6116 25.9553 21.3125 25.0938 21.3125Z" fill="#949494"/>
</svg>
