<svg width="32" height="32" viewBox="0 0 32 32" fill="none" xmlns="http://www.w3.org/2000/svg">
<g clip-path="url(#clip0_2_59)">
<path d="M4.77331 28.2613H23.7853L22.8773 25.3213L25.0493 27.1853L27.04 28.9693L30.6666 32V3.3C30.576 1.516 29.04 0 27.136 0L4.77998 0.004C2.87731 0.004 1.33331 1.52267 1.33331 3.30667V24.96C1.33331 26.8413 2.87465 28.2613 4.77331 28.2613V28.2613ZM18.8373 7.57733L18.7933 7.59333L18.8093 7.57733H18.8373ZM8.66265 9.26933C11.1066 7.49067 13.372 7.576 13.372 7.576L13.5546 7.756C10.564 8.46933 9.20798 9.80533 9.20798 9.80533C9.20798 9.80533 9.57065 9.628 10.204 9.35733C14.232 7.77333 18.6306 7.888 22.7026 9.89333C22.7026 9.89333 21.344 8.644 18.5373 7.844L18.7853 7.6C19.1733 7.60133 21.2266 7.67333 23.424 9.28C23.424 9.28 25.8827 13.48 25.8827 18.64C25.8013 18.5413 24.3573 20.8613 20.6413 20.9413C20.6413 20.9413 20.012 20.2293 19.564 19.608C21.7373 18.984 22.5506 17.736 22.5506 17.736C21.8373 18.1853 21.1866 18.452 20.6586 18.7187C19.8466 19.076 19.0333 19.252 18.2213 19.432C14.376 20.056 12.2173 19.012 10.1773 18.184L9.47998 17.8293C9.47998 17.8293 10.292 19.0773 12.3786 19.7013C11.8306 20.3267 11.288 21.0373 11.288 21.0373C7.57331 20.9493 6.21865 18.6293 6.21865 18.6293C6.21865 13.4613 8.66265 9.26933 8.66265 9.26933V9.26933Z" fill="#949494"/>
<path d="M19.0773 17.0281C20.0253 17.0281 20.7973 16.2281 20.7973 15.2414C20.7973 14.2614 20.0293 13.4614 19.0773 13.4614V13.4654C18.1333 13.4654 17.36 14.2628 17.3573 15.2494C17.3573 16.2281 18.1293 17.0281 19.0773 17.0281Z" fill="#949494"/>
<path d="M12.92 17.0281C13.868 17.0281 14.64 16.2281 14.64 15.2414C14.64 14.2614 13.8733 13.4614 12.9253 13.4614L12.92 13.4654C11.972 13.4654 11.2 14.2628 11.2 15.2494C11.2 16.2281 11.972 17.0281 12.92 17.0281Z" fill="#949494"/>
</g>
<defs>
<clipPath id="clip0_2_59">
<rect width="32" height="32" fill="white"/>
</clipPath>
</defs>
</svg>
