<svg width="15" height="15" viewBox="0 0 15 15" fill="none" xmlns="http://www.w3.org/2000/svg">
<g clip-path="url(#clip0_16_105)">
<path d="M13.5937 13.125H1.40626C0.630811 13.125 0 12.4942 0 11.7188V9.37502C0 9.11591 0.20965 8.90626 0.468753 8.90626C1.2442 8.90626 1.87501 8.27545 1.87501 7.5C1.87501 6.72456 1.2442 6.09375 0.468753 6.09375C0.20965 6.09378 0 5.88413 0 5.62502V3.28126C0 2.50581 0.630811 1.875 1.40626 1.875H13.5938C14.3692 1.875 15 2.50581 15 3.28126V5.62502C15 5.88413 14.7904 6.09378 14.5313 6.09378C13.7558 6.09378 13.125 6.72459 13.125 7.50004C13.125 8.27548 13.7558 8.90629 14.5313 8.90629C14.7904 8.90629 15 9.11594 15 9.37505V11.7188C15 12.4942 14.3692 13.125 13.5937 13.125ZM0.937506 9.79662V11.7188C0.937506 11.9774 1.14763 12.1875 1.40626 12.1875H13.5938C13.8524 12.1875 14.0625 11.9774 14.0625 11.7188V9.79662C12.9941 9.57873 12.1875 8.63207 12.1875 7.5C12.1875 6.36793 12.9941 5.42131 14.0625 5.20339V3.28126C14.0625 3.02263 13.8524 2.81251 13.5938 2.81251H1.40626C1.14763 2.81251 0.937506 3.02263 0.937506 3.28126V5.20342C2.00592 5.42131 2.81252 6.36797 2.81252 7.50004C2.81252 8.63211 2.00592 9.57873 0.937506 9.79662Z" fill="#949494"/>
<path d="M5.65503 11.0789L8.46653 3.5815L9.34433 3.91068L6.53283 11.408L5.65503 11.0789Z" fill="#949494"/>
<path d="M5.28248 7.65796C4.50703 7.65796 3.87622 7.02715 3.87622 6.25171C3.87622 5.47627 4.50703 4.84546 5.28248 4.84546C6.05793 4.84546 6.68874 5.47627 6.68874 6.25171C6.68874 7.02715 6.05793 7.65796 5.28248 7.65796ZM5.28248 5.78296C5.02385 5.78296 4.81373 5.99308 4.81373 6.25171C4.81373 6.51034 5.02385 6.72046 5.28248 6.72046C5.54111 6.72046 5.75123 6.51034 5.75123 6.25171C5.75123 5.99308 5.54111 5.78296 5.28248 5.78296Z" fill="#949494"/>
<path d="M10.1277 10.5652C9.35225 10.5652 8.72144 9.9344 8.72144 9.15895C8.72144 8.3835 9.35225 7.75269 10.1277 7.75269C10.9031 7.75269 11.534 8.3835 11.534 9.15895C11.534 9.9344 10.9031 10.5652 10.1277 10.5652ZM10.1277 8.69019C9.86907 8.69019 9.65894 8.90032 9.65894 9.15895C9.65894 9.41758 9.86907 9.6277 10.1277 9.6277C10.3863 9.6277 10.5965 9.41758 10.5965 9.15895C10.5965 8.90032 10.3863 8.69019 10.1277 8.69019Z" fill="#949494"/>
</g>
<defs>
<clipPath id="clip0_16_105">
<rect width="15" height="15" fill="white"/>
</clipPath>
</defs>
</svg>
