<svg width="32" height="32" viewBox="0 0 32 32" fill="none" xmlns="http://www.w3.org/2000/svg">
<path d="M15.9815 31.9961C15.4079 31.9961 14.8347 31.9653 14.2644 31.9038C13.7416 31.8504 13.2253 31.7628 12.7159 31.6566C12.6174 31.6359 12.5187 31.6142 12.4201 31.5914C9.41887 30.9081 6.67838 29.3736 4.5273 27.1719C4.32727 26.9669 4.13145 26.7558 3.93996 26.5387C-1.87073 19.8678 -1.17339 9.74946 5.49755 3.93876C11.8841 -1.62425 21.4975 -1.25409 27.4374 4.78347C27.6378 4.98851 27.8336 5.19962 28.0248 5.41673C30.5891 8.33703 32.0023 12.0913 32 15.9777C32 24.8245 24.8283 31.9962 15.9815 31.9961ZM5.23906 26.371C5.32342 26.4586 5.41099 26.5424 5.49695 26.6273C5.59627 26.725 5.69505 26.8233 5.7965 26.9178C5.88567 27.0011 5.97751 27.0812 6.06881 27.1623C6.17186 27.2536 6.27438 27.3449 6.3801 27.433C6.47301 27.5115 6.56859 27.5868 6.66363 27.6626C6.77042 27.7481 6.87721 27.8335 6.9872 27.9157C7.08438 27.9889 7.18316 28.0599 7.28247 28.1293C7.393 28.2083 7.50406 28.2895 7.61673 28.3632C7.71764 28.4315 7.81963 28.4977 7.92214 28.5634C8.03641 28.6366 8.15121 28.7086 8.26708 28.777C8.3714 28.8393 8.47638 28.9005 8.5821 28.9607C8.70031 29.0279 8.81898 29.0936 8.93825 29.1577C9.04504 29.2146 9.15183 29.2704 9.25862 29.3248C9.38036 29.3862 9.50317 29.4455 9.62651 29.5037C9.7333 29.5544 9.84436 29.6051 9.95435 29.6532C10.0798 29.7066 10.2069 29.76 10.334 29.8134C10.4445 29.8588 10.5545 29.9031 10.6661 29.9458C10.7953 29.9949 10.9261 30.0408 11.057 30.0868C11.1685 30.1257 11.2801 30.1647 11.3933 30.2016C11.5263 30.2443 11.6603 30.2838 11.7949 30.3228C11.9075 30.3553 12.0191 30.389 12.1323 30.4194C12.1756 30.4306 12.2188 30.4397 12.2621 30.4509C10.6816 28.9163 9.50871 27.0117 8.84961 24.9096C7.58229 25.2438 6.35541 25.716 5.191 26.3176C5.20862 26.3363 5.22357 26.355 5.23906 26.371ZM4.47124 25.5114C5.75385 24.8164 7.11395 24.2751 8.52337 23.8988C7.83244 21.4963 7.46976 19.0114 7.44533 16.5117H1.04329C1.15963 19.8081 2.36508 22.9729 4.47124 25.5114ZM4.47124 6.44405C2.36521 8.98258 1.15976 12.1474 1.04329 15.4438H7.44533C7.46976 12.944 7.83238 10.4591 8.52337 8.05658C7.11401 7.68014 5.75391 7.13892 4.47124 6.44405ZM12.1291 1.53386C12.0213 1.56109 11.9097 1.59633 11.7986 1.6289C11.6635 1.66841 11.5279 1.70793 11.3944 1.75118C11.2817 1.78749 11.1707 1.82646 11.0596 1.86544C10.9283 1.91083 10.7969 1.95728 10.6672 2.00694C10.5561 2.04912 10.4467 2.09344 10.3367 2.13829C10.209 2.19168 10.0814 2.24508 9.95489 2.29847C9.84596 2.34653 9.73757 2.39599 9.62971 2.44691C9.5053 2.50565 9.38142 2.56545 9.25595 2.62738C9.14916 2.68078 9.04237 2.73418 8.93558 2.79238C8.81491 2.85698 8.6953 2.92319 8.5757 2.99154C8.46891 3.05081 8.36746 3.11168 8.26441 3.17362C8.14694 3.2441 8.0316 3.31671 7.91627 3.39093C7.81482 3.45554 7.71337 3.52122 7.61352 3.58849C7.49979 3.66538 7.38713 3.74548 7.27553 3.82557C7.17782 3.89552 7.08011 3.96546 6.984 4.03915C6.87347 4.12244 6.76508 4.20841 6.65722 4.29491C6.56271 4.37019 6.46874 4.44495 6.37637 4.52237C6.26958 4.611 6.16652 4.70338 6.06294 4.79522C5.97217 4.87584 5.88086 4.9554 5.79223 5.03763C5.69024 5.13267 5.59146 5.23145 5.49215 5.32917C5.40618 5.41406 5.31861 5.49789 5.23425 5.58493C5.21877 5.60148 5.20381 5.61856 5.18833 5.63458C6.35267 6.23648 7.57955 6.70882 8.84694 7.04314C9.50617 4.94112 10.679 3.03659 12.2594 1.50182C12.2162 1.51303 12.1724 1.52211 12.1291 1.53386ZM15.4476 1.06932C13.1628 1.39396 11.16 3.77858 9.89989 7.29997C11.7217 7.70791 13.5809 7.92676 15.4476 7.95299V1.06932ZM15.4476 9.02089C13.4673 8.99486 11.4954 8.75965 9.56457 8.31928C8.89413 10.6357 8.54046 13.0324 8.51323 15.4438H15.4476V9.02089ZM15.4476 16.5117H8.51323C8.54039 18.923 8.89406 21.3197 9.56457 23.6361C11.4954 23.1958 13.4674 22.9606 15.4476 22.9345V16.5117ZM15.4476 24.0024C13.5808 24.0284 11.7217 24.2473 9.89989 24.6554C11.16 28.1768 13.1628 30.5614 15.4476 30.8861V24.0024ZM27.4919 25.5114C29.5979 22.9728 30.8034 19.808 30.9198 16.5117H24.5178C24.4934 19.0114 24.1307 21.4963 23.4397 23.8988C24.8491 24.2753 26.2092 24.8166 27.4919 25.5114ZM19.8297 30.4221C19.9419 30.3943 20.0534 30.3591 20.1645 30.3265C20.2996 30.287 20.4352 30.2475 20.5687 30.2042C20.6814 30.1679 20.7924 30.1289 20.9035 30.09C21.0348 30.0446 21.1662 29.9981 21.2959 29.9485C21.407 29.9063 21.5165 29.862 21.6265 29.8171C21.7541 29.7637 21.8817 29.7103 22.0082 29.6569C22.1172 29.6089 22.2255 29.5594 22.3334 29.5085C22.4578 29.4498 22.5817 29.39 22.7072 29.328C22.814 29.2746 22.9207 29.2212 23.0275 29.163C23.1482 29.0984 23.2678 29.0322 23.3874 28.9639C23.4942 28.9046 23.5957 28.8437 23.6987 28.7818C23.8162 28.7113 23.9315 28.6387 24.0468 28.5645C24.1483 28.4999 24.2497 28.4342 24.3496 28.3669C24.4633 28.29 24.5755 28.2105 24.687 28.1304C24.7853 28.0604 24.883 27.9899 24.9797 27.9168C25.0896 27.834 25.1975 27.7481 25.3059 27.6616C25.3999 27.5868 25.4944 27.5121 25.5868 27.4341C25.6935 27.3455 25.7966 27.2531 25.9002 27.1613C25.9909 27.0806 26.0823 27.0011 26.1709 26.9188C26.2729 26.8238 26.3717 26.725 26.471 26.6273C26.5569 26.5424 26.6445 26.4586 26.7289 26.3715C26.7444 26.355 26.7593 26.3379 26.7748 26.3219C25.6104 25.72 24.3836 25.2477 23.1162 24.9133C22.4557 27.0156 21.2813 28.92 19.6994 30.4541C19.7427 30.4429 19.7865 30.4338 19.8297 30.4221ZM16.5155 30.8861C18.8003 30.5614 20.8031 28.1768 22.0632 24.6554C20.2414 24.2475 18.3823 24.0286 16.5155 24.0024V30.8861ZM16.5155 22.9345C18.4958 22.9605 20.4677 23.1958 22.3985 23.6361C23.069 21.3197 23.4227 18.923 23.4499 16.5117H16.5155V22.9345ZM16.5155 15.4438H23.4499C23.4227 13.0324 23.0691 10.6357 22.3985 8.31928C20.4677 8.75958 18.4958 8.99479 16.5155 9.02089V15.4438ZM16.5155 1.06932V7.95299C18.3823 7.92696 20.2414 7.70811 22.0632 7.29997C20.8031 3.77858 18.8003 1.39396 16.5155 1.06932ZM26.7241 5.58439C26.6397 5.49736 26.5527 5.41353 26.4667 5.32863C26.3674 5.23092 26.2681 5.13214 26.1661 5.0371C26.0774 4.95433 25.9861 4.87691 25.8954 4.79415C25.7918 4.70231 25.6887 4.61047 25.583 4.52184C25.4896 4.44388 25.3945 4.36859 25.2995 4.29277C25.1927 4.20734 25.0859 4.12191 24.9759 4.03968C24.8787 3.96653 24.78 3.89551 24.6806 3.8261C24.5701 3.74708 24.4591 3.66592 24.3464 3.59223C24.2455 3.52389 24.1435 3.45768 24.041 3.39253C23.9267 3.31885 23.8116 3.24763 23.6955 3.17896C23.5887 3.11648 23.4867 3.05561 23.3815 2.99528C23.2633 2.928 23.1445 2.86232 23.0249 2.79825C22.9181 2.74132 22.8113 2.68559 22.7045 2.63112C22.5828 2.56972 22.46 2.51045 22.3366 2.45225C22.2298 2.40153 22.1188 2.3508 22.0088 2.30275C21.8833 2.24935 21.7562 2.19596 21.6291 2.14256C21.5186 2.09771 21.4086 2.05286 21.2975 2.01068C21.1673 1.96102 21.0364 1.91456 20.9051 1.86918C20.794 1.8302 20.683 1.79122 20.5703 1.75491C20.4368 1.71166 20.3033 1.67215 20.1672 1.63317C20.0556 1.60007 19.9435 1.56696 19.8308 1.53653C19.7875 1.52532 19.7443 1.51624 19.701 1.50503C21.2815 3.03966 22.4544 4.94426 23.1135 7.04634C24.3808 6.71209 25.6077 6.23995 26.7721 5.63832C26.7545 5.6191 26.7395 5.60041 26.7241 5.58439ZM27.4919 6.44405C26.2093 7.13898 24.8492 7.68027 23.4397 8.05658C24.1307 10.4591 24.4934 12.944 24.5178 15.4438H30.9198C30.8036 12.1474 29.598 8.98251 27.4919 6.44405Z" fill="#949494"/>
</svg>
