<svg width="24" height="24" viewBox="0 0 24 24" fill="none" xmlns="http://www.w3.org/2000/svg">
<g clip-path="url(#clip0_16_183)">
<path d="M19.915 13.0278C19.527 12.5378 19.638 12.3198 19.915 11.8818C19.92 11.8768 23.123 7.45076 23.453 5.94976L23.455 5.94876C23.619 5.40176 23.455 4.99976 22.662 4.99976H20.038C19.37 4.99976 19.062 5.34476 18.897 5.73076C18.897 5.73076 17.561 8.92876 15.671 11.0018C15.061 11.6008 14.779 11.7928 14.446 11.7928C14.282 11.7928 14.027 11.6008 14.027 11.0538V5.94876C14.027 5.29276 13.84 4.99976 13.287 4.99976H9.161C8.742 4.99976 8.493 5.30576 8.493 5.59076C8.493 6.21276 9.438 6.35576 9.536 8.10576V11.9028C9.536 12.7348 9.385 12.8878 9.05 12.8878C8.158 12.8878 5.993 9.67676 4.71 6.00176C4.451 5.28876 4.198 5.00076 3.525 5.00076H0.9C0.151 5.00076 0 5.34576 0 5.73176C0 6.41376 0.892 9.80476 4.148 14.2848C6.318 17.3428 9.374 18.9998 12.154 18.9998C13.825 18.9998 14.029 18.6318 14.029 17.9988C14.029 15.0768 13.878 14.8008 14.715 14.8008C15.103 14.8008 15.771 14.9928 17.331 16.4678C19.114 18.2168 19.407 18.9998 20.405 18.9998H23.029C23.777 18.9998 24.156 18.6318 23.938 17.9058C23.439 16.3788 20.067 13.2378 19.915 13.0278Z" fill="#949494"/>
</g>
<defs>
<clipPath id="clip0_16_183">
<rect width="24" height="24" fill="white"/>
</clipPath>
</defs>
</svg>
