<svg width="24" height="24" viewBox="0 0 24 24" fill="none" xmlns="http://www.w3.org/2000/svg">
<g clip-path="url(#clip0_16_198)">
<path d="M11.9861 23.9961C11.5559 23.9961 11.126 23.973 10.6983 23.9269C10.3062 23.8868 9.91899 23.8211 9.53695 23.7415C9.46301 23.726 9.38903 23.7097 9.31509 23.6926C7.06415 23.1801 5.00878 22.0292 3.39548 20.378C3.24545 20.2242 3.09859 20.0659 2.95497 19.903C-1.40305 14.8999 -0.880046 7.31112 4.12317 2.9531C8.91308 -1.21916 16.1231 -0.94154 20.5781 3.58663C20.7284 3.7404 20.8752 3.89874 21.0186 4.06157C22.9418 6.2518 24.0017 9.06749 24 11.9823C24 18.6174 18.6212 23.9961 11.9861 23.9961ZM3.92929 19.7773C3.99256 19.843 4.05824 19.9058 4.12271 19.9695C4.1972 20.0428 4.27129 20.1165 4.34737 20.1874C4.41425 20.2498 4.48313 20.3099 4.55161 20.3708C4.6289 20.4392 4.70579 20.5077 4.78508 20.5738C4.85476 20.6327 4.92644 20.6891 4.99772 20.746C5.07781 20.8101 5.15791 20.8741 5.2404 20.9358C5.31329 20.9907 5.38737 21.0439 5.46186 21.096C5.54475 21.1553 5.62805 21.2161 5.71255 21.2714C5.78823 21.3227 5.86472 21.3723 5.94161 21.4216C6.02731 21.4764 6.11341 21.5305 6.20031 21.5818C6.27855 21.6285 6.35729 21.6744 6.43658 21.7195C6.52523 21.77 6.61423 21.8192 6.70369 21.8673C6.78378 21.91 6.86387 21.9518 6.94396 21.9926C7.03527 22.0387 7.12737 22.0831 7.21988 22.1268C7.29997 22.1648 7.38327 22.2029 7.46576 22.2389C7.55987 22.279 7.65518 22.319 7.75049 22.3591C7.83339 22.3931 7.91588 22.4263 7.99958 22.4584C8.09649 22.4952 8.1946 22.5297 8.29272 22.5641C8.37641 22.5933 8.46011 22.6226 8.54501 22.6502C8.64472 22.6822 8.74524 22.7119 8.84615 22.7411C8.93065 22.7655 9.01435 22.7908 9.09924 22.8136C9.13168 22.822 9.16412 22.8288 9.19656 22.8372C8.01119 21.6862 7.13153 20.2578 6.63721 18.6812C5.68672 18.9319 4.76656 19.286 3.89325 19.7372C3.90647 19.7513 3.91768 19.7653 3.92929 19.7773ZM3.35343 19.1325C4.31539 18.6113 5.33546 18.2054 6.39253 17.9231C5.87433 16.1213 5.60232 14.2576 5.584 12.3828H0.782469C0.869719 14.8551 1.77381 17.2287 3.35343 19.1325ZM3.35343 4.83206C1.77391 6.73596 0.869819 9.10959 0.782469 11.5818H5.584C5.60232 9.70703 5.87428 7.84333 6.39253 6.04146C5.33551 5.75913 4.31544 5.35321 3.35343 4.83206ZM9.09684 1.14942C9.01595 1.16984 8.93225 1.19627 8.84896 1.2207C8.74764 1.25033 8.64592 1.27997 8.54581 1.31241C8.46131 1.33964 8.37801 1.36887 8.29472 1.39811C8.19621 1.43214 8.09769 1.46698 8.00038 1.50423C7.91708 1.53586 7.83499 1.5691 7.75249 1.60274C7.65678 1.64279 7.56107 1.68283 7.46616 1.72288C7.38447 1.75892 7.30318 1.79601 7.22228 1.83421C7.12898 1.87826 7.03607 1.92311 6.94196 1.96956C6.86187 2.00961 6.78178 2.04966 6.70168 2.09331C6.61118 2.14176 6.52148 2.19142 6.43177 2.24268C6.35168 2.28713 6.27559 2.33278 6.1983 2.37924C6.1102 2.4321 6.0237 2.48656 5.9372 2.54222C5.86112 2.59068 5.78503 2.63994 5.71014 2.6904C5.62484 2.74806 5.54035 2.80813 5.45665 2.8682C5.38337 2.92066 5.31008 2.97312 5.238 3.02838C5.1551 3.09085 5.07381 3.15533 4.99292 3.22021C4.92203 3.27667 4.85155 3.33273 4.78227 3.3908C4.70218 3.45728 4.62489 3.52656 4.5472 3.59544C4.47913 3.65591 4.41065 3.71557 4.34417 3.77725C4.26768 3.84853 4.1936 3.92261 4.11911 3.9959C4.05464 4.05957 3.98896 4.12244 3.92569 4.18772C3.91407 4.20013 3.90286 4.21295 3.89125 4.22496C4.7645 4.67638 5.68466 5.03064 6.63521 5.28138C7.12963 3.70486 8.00924 2.27647 9.19455 1.12539C9.16212 1.1338 9.12928 1.14061 9.09684 1.14942ZM11.5857 0.801016C9.87214 1.0445 8.37 2.83296 7.42492 5.474C8.79129 5.77995 10.1856 5.94409 11.5857 5.96377V0.801016ZM11.5857 6.76469C10.1005 6.74517 8.62154 6.56876 7.17343 6.23848C6.6706 7.97583 6.40534 9.77331 6.38492 11.5818H11.5857V6.76469ZM11.5857 12.3828H6.38492C6.40529 14.1913 6.67055 15.9888 7.17343 17.7261C8.62154 17.3959 10.1005 17.2195 11.5857 17.1999V12.3828ZM11.5857 18.0008C10.1856 18.0204 8.79129 18.1845 7.42492 18.4906C8.37 21.1316 9.87214 22.9201 11.5857 23.1636V18.0008ZM20.6189 19.1325C22.1984 17.2286 23.1025 14.855 23.1899 12.3828H18.3883C18.37 14.2576 18.0981 16.1213 17.5798 17.9231C18.6368 18.2055 19.6569 18.6114 20.6189 19.1325ZM14.8723 22.8156C14.9564 22.7948 15.0401 22.7683 15.1234 22.7439C15.2247 22.7143 15.3264 22.6846 15.4265 22.6522C15.511 22.625 15.5943 22.5957 15.6776 22.5665C15.7761 22.5325 15.8746 22.4976 15.972 22.4604C16.0553 22.4287 16.1374 22.3955 16.2198 22.3619C16.3156 22.3218 16.4113 22.2818 16.5062 22.2417C16.5879 22.2057 16.6692 22.1686 16.7501 22.1304C16.8434 22.0863 16.9363 22.0415 17.0304 21.995C17.1105 21.955 17.1906 21.9149 17.2707 21.8713C17.3612 21.8228 17.4509 21.7732 17.5406 21.7219C17.6207 21.6775 17.6967 21.6318 17.774 21.5854C17.8621 21.5325 17.9486 21.478 18.0351 21.4224C18.1112 21.3739 18.1873 21.3247 18.2622 21.2742C18.3475 21.2165 18.4316 21.1569 18.5153 21.0968C18.589 21.0443 18.6623 20.9915 18.7347 20.9366C18.8172 20.8745 18.8981 20.8101 18.9794 20.7452C19.0499 20.6891 19.1208 20.6331 19.1901 20.5746C19.2702 20.5081 19.3474 20.4388 19.4251 20.37C19.4932 20.3095 19.5617 20.2498 19.6282 20.1882C19.7047 20.1169 19.7787 20.0428 19.8532 19.9695C19.9177 19.9058 19.9834 19.843 20.0467 19.7777C20.0583 19.7653 20.0695 19.7525 20.0811 19.7404C19.2078 19.289 18.2877 18.9348 17.3371 18.684C16.8418 20.2607 15.961 21.689 14.7746 22.8396C14.807 22.8312 14.8399 22.8244 14.8723 22.8156ZM12.3866 23.1636C14.1002 22.9201 15.6023 21.1316 16.5474 18.4906C15.181 18.1846 13.7867 18.0205 12.3866 18.0008V23.1636ZM12.3866 17.1999C13.8718 17.2194 15.3508 17.3958 16.7989 17.7261C17.3017 15.9888 17.567 14.1913 17.5874 12.3828H12.3866V17.1999ZM12.3866 11.5818H17.5874C17.567 9.77331 17.3018 7.97583 16.7989 6.23848C15.3508 6.56871 13.8718 6.74512 12.3866 6.76469V11.5818ZM12.3866 0.801016V5.96377C13.7867 5.94424 15.181 5.78011 16.5474 5.474C15.6023 2.83296 14.1002 1.0445 12.3866 0.801016ZM20.043 4.18732C19.9798 4.12204 19.9145 4.05917 19.85 3.9955C19.7755 3.92221 19.7011 3.84813 19.6246 3.77685C19.5581 3.71477 19.4896 3.65671 19.4215 3.59464C19.3438 3.52576 19.2666 3.45688 19.1873 3.3904C19.1172 3.33193 19.0459 3.27547 18.9746 3.2186C18.8945 3.15453 18.8144 3.09045 18.7319 3.02878C18.6591 2.97392 18.585 2.92066 18.5105 2.8686C18.4276 2.80933 18.3443 2.74846 18.2598 2.6932C18.1841 2.64194 18.1076 2.59228 18.0307 2.54342C17.945 2.48816 17.8587 2.43475 17.7716 2.38324C17.6915 2.33639 17.6151 2.29073 17.5362 2.24548C17.4475 2.19502 17.3584 2.14577 17.2687 2.09771C17.1886 2.05501 17.1085 2.01321 17.0284 1.97237C16.9371 1.92631 16.845 1.88186 16.7525 1.83821C16.6724 1.80017 16.5891 1.76213 16.5066 1.72608C16.4125 1.68604 16.3172 1.64599 16.2218 1.60595C16.139 1.57231 16.0565 1.53867 15.9732 1.50703C15.8754 1.46979 15.7773 1.43495 15.6788 1.40091C15.5955 1.37168 15.5122 1.34244 15.4277 1.31521C15.3276 1.28277 15.2275 1.25314 15.1254 1.2239C15.0417 1.19908 14.9576 1.17425 14.8731 1.15142C14.8407 1.14301 14.8082 1.1362 14.7758 1.12779C15.9611 2.27877 16.8408 3.70722 17.3351 5.28378C18.2856 5.03309 19.2058 4.67899 20.0791 4.22776C20.0659 4.21335 20.0547 4.19933 20.043 4.18732ZM20.6189 4.83206C19.657 5.35326 18.6369 5.75923 17.5798 6.04146C18.098 7.84333 18.37 9.70703 18.3883 11.5818H23.1899C23.1027 9.10959 22.1985 6.73591 20.6189 4.83206Z" fill="#949494"/>
</g>
<defs>
<clipPath id="clip0_16_198">
<rect width="24" height="24" fill="white" transform="matrix(1 0 0 -1 0 24)"/>
</clipPath>
</defs>
</svg>
